<svg width="70" height="70" viewBox="0 0 70 70" fill="none" xmlns="http://www.w3.org/2000/svg">
<g clip-path="url(#clip0_149_259)">
<path d="M37.9167 8.75H32.0833V37.9167H37.9167V8.75ZM52.0042 15.0792L47.8625 19.2208C52.4708 22.925 55.4167 28.6125 55.4167 35C55.4167 46.2875 46.2875 55.4167 35 55.4167C23.7125 55.4167 14.5833 46.2875 14.5833 35C14.5833 28.6125 17.5292 22.925 22.1083 19.1917L17.9958 15.0792C12.3375 19.8917 8.75 27.0083 8.75 35C8.75 49.4958 20.5042 61.25 35 61.25C49.4958 61.25 61.25 49.4958 61.25 35C61.25 27.0083 57.6625 19.8917 52.0042 15.0792Z" fill="white"/>
</g>
<defs>
<clipPath id="clip0_149_259">
<rect width="70" height="70" fill="white"/>
</clipPath>
</defs>
</svg>
