<svg width="30" height="30" viewBox="0 0 30 30" fill="none" xmlns="http://www.w3.org/2000/svg">
<g clip-path="url(#clip0_151_344)">
<path d="M13.75 3.75H16.25V16.25H13.75V3.75ZM7.7125 6.4625L9.4875 8.2375C7.5125 9.825 6.25 12.2625 6.25 15C6.25 19.8375 10.1625 23.75 15 23.75C19.8375 23.75 23.75 19.8375 23.75 15C23.75 12.2625 22.4875 9.825 20.525 8.225L22.2875 6.4625C24.7125 8.525 26.25 11.575 26.25 15C26.25 21.2125 21.2125 26.25 15 26.25C8.7875 26.25 3.75 21.2125 3.75 15C3.75 11.575 5.2875 8.525 7.7125 6.4625Z" fill="black"/>
</g>
<defs>
<clipPath id="clip0_151_344">
<rect width="30" height="30" fill="white" transform="matrix(-1 0 0 1 30 0)"/>
</clipPath>
</defs>
</svg>
